<svg width="24" height="24" viewBox="0 0 24 24" fill="none" xmlns="http://www.w3.org/2000/svg">
<path d="M13.3139 11.8998L16.8489 8.36382C16.9445 8.27157 17.0206 8.16123 17.073 8.03922C17.1255 7.91722 17.153 7.786 17.1542 7.65322C17.1553 7.52044 17.13 7.38876 17.0798 7.26587C17.0295 7.14297 16.9552 7.03132 16.8613 6.93742C16.7674 6.84353 16.6558 6.76928 16.5329 6.719C16.41 6.66872 16.2783 6.64342 16.1455 6.64457C16.0128 6.64572 15.8815 6.67331 15.7595 6.72572C15.6375 6.77813 15.5272 6.85431 15.4349 6.94982L11.8989 10.4848L8.36394 6.94982C8.27169 6.85431 8.16135 6.77813 8.03935 6.72572C7.91734 6.67331 7.78612 6.64572 7.65334 6.64457C7.52056 6.64342 7.38888 6.66872 7.26599 6.719C7.14309 6.76928 7.03144 6.84353 6.93755 6.93742C6.84365 7.03132 6.7694 7.14297 6.71912 7.26587C6.66884 7.38876 6.64354 7.52044 6.64469 7.65322C6.64584 7.786 6.67343 7.91722 6.72584 8.03922C6.77825 8.16123 6.85443 8.27157 6.94994 8.36382L10.4849 11.8988L6.94994 15.4348C6.85443 15.5271 6.77825 15.6374 6.72584 15.7594C6.67343 15.8814 6.64584 16.0126 6.64469 16.1454C6.64354 16.2782 6.66884 16.4099 6.71912 16.5328C6.7694 16.6557 6.84365 16.7673 6.93755 16.8612C7.03144 16.9551 7.14309 17.0294 7.26599 17.0796C7.38888 17.1299 7.52056 17.1552 7.65334 17.1541C7.78612 17.1529 7.91734 17.1253 8.03935 17.0729C8.16135 17.0205 8.27169 16.9443 8.36394 16.8488L11.8989 13.3138L15.4349 16.8488C15.5272 16.9443 15.6375 17.0205 15.7595 17.0729C15.8815 17.1253 16.0128 17.1529 16.1455 17.1541C16.2783 17.1552 16.41 17.1299 16.5329 17.0796C16.6558 17.0294 16.7674 16.9551 16.8613 16.8612C16.9552 16.7673 17.0295 16.6557 17.0798 16.5328C17.13 16.4099 17.1553 16.2782 17.1542 16.1454C17.153 16.0126 17.1255 15.8814 17.073 15.7594C17.0206 15.6374 16.9445 15.5271 16.8489 15.4348L13.3139 11.8988V11.8998Z" fill="#454545"/>
</svg>
