<svg width="118" height="120" viewBox="0 0 118 120" fill="none" xmlns="http://www.w3.org/2000/svg">
<path d="M0 61.43C0 76.9637 6.17076 91.8613 17.1548 102.845C28.1388 113.829 43.0364 120 58.5701 120C74.1039 120 89.0014 113.829 99.9855 102.845C110.969 91.8613 117.14 76.9637 117.14 61.43C117.14 45.8962 110.969 30.9987 99.9855 20.0147C89.0014 9.03062 74.1039 2.85986 58.5701 2.85986C43.0364 2.85986 28.1388 9.03062 17.1548 20.0147C6.17076 30.9987 0 45.8962 0 61.43Z" fill="#F5E9FC"/>
<path d="M40.6167 110.247C40.6167 110.83 42.7765 111.388 46.6209 111.8C50.4653 112.212 55.6794 112.444 61.1162 112.444C66.5531 112.444 71.7672 112.212 75.6116 111.8C79.456 111.388 81.6158 110.83 81.6158 110.247C81.6158 109.665 79.456 109.106 75.6116 108.694C71.7672 108.282 66.5531 108.051 61.1162 108.051C55.6794 108.051 50.4653 108.282 46.6209 108.694C42.7765 109.106 40.6167 109.665 40.6167 110.247Z" fill="#E8DAF0"/>
<path d="M35.52 94.333H39.4501C39.9712 94.333 40.471 94.126 40.8396 93.7575C41.2081 93.389 41.4151 92.8892 41.4151 92.368V69.7702C41.4151 69.249 41.2081 68.7492 40.8396 68.3807C40.471 68.0122 39.9712 67.8052 39.4501 67.8052H35.52V94.333Z" fill="white" stroke="#A537DC" stroke-width="2" stroke-linecap="round" stroke-linejoin="round"/>
<path d="M64.0141 64.8579C64.7462 57.5161 65.7199 41.7681 59.592 41.7681C58.4196 41.7681 57.2952 42.2338 56.4662 43.0628C55.6372 43.8918 55.1715 45.0162 55.1715 46.1886V47.6632C55.1715 58.4708 50.4858 69.7734 41.4075 69.7734V92.3712H42.5672C48.2338 92.3712 50.9134 96.3013 61.0665 96.3013H78.2613C79.3036 96.3013 80.3032 95.8872 81.0402 95.1502C81.7772 94.4131 82.1913 93.4135 82.1913 92.3712C82.1913 91.3289 81.7772 90.3292 81.0402 89.5922C80.3032 88.8552 79.3036 88.4411 78.2613 88.4411H80.2263C81.2686 88.4411 82.2682 88.0271 83.0053 87.29C83.7423 86.553 84.1563 85.5534 84.1563 84.5111C84.1563 83.4688 83.7423 82.4691 83.0053 81.7321C82.2682 80.9951 81.2686 80.581 80.2263 80.581H82.1913C83.2336 80.581 84.2333 80.167 84.9703 79.4299C85.7073 78.6929 86.1214 77.6933 86.1214 76.651C86.1214 75.6087 85.7073 74.609 84.9703 73.872C84.2333 73.135 83.2336 72.7209 82.1913 72.7209H84.1563C85.1987 72.7209 86.1983 72.3069 86.9353 71.5698C87.6723 70.8328 88.0864 69.8332 88.0864 68.7909C88.0864 67.7485 87.6723 66.7489 86.9353 66.0119C86.1983 65.2749 85.1987 64.8608 84.1563 64.8608L64.0141 64.8579Z" fill="white"/>
<path d="M60.0837 64.8574H64.0138" stroke="#A537DC" stroke-width="2" stroke-linecap="round" stroke-linejoin="round"/>
<path d="M78.2612 88.4385H76.2961" stroke="#A537DC" stroke-width="2" stroke-linecap="round" stroke-linejoin="round"/>
<path d="M80.2267 80.5781H78.2617" stroke="#A537DC" stroke-width="2" stroke-linecap="round" stroke-linejoin="round"/>
<path d="M82.1916 72.7178H80.2266" stroke="#A537DC" stroke-width="2" stroke-linecap="round" stroke-linejoin="round"/>
<path d="M64.0141 64.8579C64.7462 57.5161 65.7199 41.7681 59.592 41.7681C58.4196 41.7681 57.2952 42.2338 56.4662 43.0628C55.6372 43.8918 55.1715 45.0162 55.1715 46.1886V47.6632C55.1715 58.4708 50.4858 69.7734 41.4075 69.7734V92.3712H42.5672C48.2338 92.3712 50.9134 96.3012 61.0665 96.3012H78.2613C79.3036 96.3012 80.3032 95.8872 81.0402 95.1502C81.7772 94.4131 82.1913 93.4135 82.1913 92.3712C82.1913 91.3289 81.7772 90.3292 81.0402 89.5922C80.3032 88.8552 79.3036 88.4411 78.2613 88.4411H80.2263C81.2686 88.4411 82.2682 88.0271 83.0053 87.29C83.7423 86.553 84.1563 85.5534 84.1563 84.5111C84.1563 83.4688 83.7423 82.4691 83.0053 81.7321C82.2682 80.9951 81.2686 80.581 80.2263 80.581H82.1913C83.2336 80.581 84.2333 80.167 84.9703 79.4299C85.7073 78.6929 86.1214 77.6933 86.1214 76.651C86.1214 75.6087 85.7073 74.609 84.9703 73.872C84.2333 73.135 83.2336 72.7209 82.1913 72.7209H84.1563C85.1987 72.7209 86.1983 72.3069 86.9353 71.5698C87.6723 70.8328 88.0864 69.8332 88.0864 68.7909C88.0864 67.7485 87.6723 66.7489 86.9353 66.0119C86.1983 65.2749 85.1987 64.8608 84.1563 64.8608L64.0141 64.8579Z" stroke="#A537DC" stroke-width="2" stroke-linecap="round" stroke-linejoin="round"/>
<path d="M21.7644 65.8403H35.5196V96.2997H21.7644V65.8403Z" fill="#FBF0F7"/>
<path d="M21.7644 65.8403H35.5196V96.2997H21.7644V65.8403Z" stroke="#A537DC" stroke-width="2" stroke-linecap="round" stroke-linejoin="round"/>
<path d="M60.2728 1.92702L63.2804 8.01978C63.3989 8.26205 63.575 8.47159 63.7933 8.6301C64.0115 8.78861 64.2652 8.89126 64.5323 8.92908L71.2576 9.9072C71.5645 9.95179 71.8528 10.0814 72.0899 10.2813C72.327 10.4811 72.5034 10.7434 72.5992 11.0383C72.6951 11.3333 72.7065 11.6491 72.6321 11.9502C72.5578 12.2513 72.4007 12.5255 72.1786 12.742L67.3115 17.4862C67.1201 17.6739 66.9767 17.905 66.8936 18.1599C66.8105 18.4148 66.7901 18.686 66.8341 18.9504L67.9821 25.6509C68.0363 25.9571 68.0034 26.2723 67.8872 26.5608C67.771 26.8492 67.5762 27.0992 67.3248 27.2823C67.0735 27.4654 66.7758 27.5743 66.4657 27.5965C66.1555 27.6187 65.8453 27.5534 65.5705 27.408L59.5553 24.2422C59.3167 24.1167 59.0511 24.0511 58.7815 24.0511C58.5118 24.0511 58.2462 24.1167 58.0076 24.2422L51.9924 27.405C51.7176 27.5505 51.4074 27.6158 51.0973 27.5936C50.7871 27.5714 50.4894 27.4625 50.2381 27.2794C49.9867 27.0963 49.7919 26.8463 49.6757 26.5578C49.5595 26.2694 49.5266 25.9541 49.5808 25.6479L50.7288 18.9475C50.7731 18.683 50.7529 18.4118 50.6698 18.1568C50.5867 17.9018 50.4431 17.6708 50.2514 17.4832L45.3916 12.7361C45.1695 12.5197 45.0124 12.2454 44.9381 11.9443C44.8638 11.6433 44.8752 11.3274 44.971 11.0325C45.0668 10.7375 45.2432 10.4753 45.4803 10.2754C45.7174 10.0755 46.0057 9.94594 46.3126 9.90134L53.0379 8.92322C53.305 8.8854 53.5587 8.78275 53.777 8.62424C53.9952 8.46573 54.1713 8.25619 54.2899 8.01392L57.2916 1.92702C57.4288 1.64878 57.6411 1.41449 57.9045 1.25066C58.1679 1.08683 58.472 1 58.7822 1C59.0924 1 59.3964 1.08683 59.6599 1.25066C59.9233 1.41449 60.1356 1.64878 60.2728 1.92702Z" fill="#FBF0F7"/>
<path d="M60.2728 1.92702L63.2804 8.01978C63.3989 8.26205 63.575 8.47159 63.7933 8.6301C64.0115 8.78861 64.2652 8.89126 64.5323 8.92908L71.2576 9.9072C71.5645 9.95179 71.8528 10.0814 72.0899 10.2813C72.327 10.4811 72.5034 10.7434 72.5992 11.0383C72.6951 11.3333 72.7065 11.6491 72.6321 11.9502C72.5578 12.2513 72.4007 12.5255 72.1786 12.742L67.3115 17.4862C67.1201 17.6739 66.9767 17.905 66.8936 18.1599C66.8105 18.4148 66.7901 18.686 66.8341 18.9504L67.9821 25.6508C68.0363 25.957 68.0034 26.2723 67.8872 26.5608C67.771 26.8492 67.5762 27.0992 67.3248 27.2823C67.0735 27.4654 66.7758 27.5743 66.4657 27.5965C66.1555 27.6187 65.8453 27.5534 65.5705 27.408L59.5553 24.2422C59.3167 24.1167 59.0511 24.0511 58.7815 24.0511C58.5118 24.0511 58.2462 24.1167 58.0076 24.2422L51.9924 27.405C51.7176 27.5505 51.4074 27.6158 51.0973 27.5936C50.7871 27.5714 50.4894 27.4625 50.2381 27.2794C49.9867 27.0963 49.7919 26.8463 49.6757 26.5578C49.5595 26.2694 49.5266 25.9541 49.5808 25.6479L50.7288 18.9475C50.7731 18.683 50.7529 18.4118 50.6698 18.1568C50.5867 17.9018 50.4431 17.6708 50.2514 17.4832L45.3916 12.7361C45.1695 12.5197 45.0124 12.2454 44.9381 11.9443C44.8638 11.6433 44.8752 11.3274 44.971 11.0325C45.0668 10.7375 45.2432 10.4753 45.4803 10.2754C45.7174 10.0755 46.0057 9.94594 46.3126 9.90134L53.0379 8.92322C53.305 8.8854 53.5587 8.78275 53.777 8.62424C53.9952 8.46573 54.1713 8.25619 54.2899 8.01392L57.2916 1.92702C57.4288 1.64878 57.6411 1.41449 57.9045 1.25066C58.1679 1.08683 58.472 1 58.7822 1C59.0924 1 59.3964 1.08683 59.6599 1.25066C59.9233 1.41449 60.1356 1.64878 60.2728 1.92702V1.92702Z" stroke="#A537DC" stroke-width="2" stroke-linecap="round" stroke-linejoin="round"/>
<path d="M25.5814 15.0717L30.3343 18.0661C30.5228 18.1853 30.7374 18.2567 30.9597 18.274C31.1819 18.2914 31.4051 18.2542 31.6097 18.1657L36.7727 15.9474C37.0083 15.8459 37.2676 15.8124 37.5212 15.8508C37.7749 15.8891 38.0127 15.9978 38.2078 16.1643C38.4029 16.3309 38.5474 16.5488 38.625 16.7933C38.7026 17.0378 38.7102 17.2992 38.6469 17.5478L37.2676 22.9948C37.2126 23.2103 37.2105 23.4359 37.2615 23.6523C37.3124 23.8688 37.415 24.0697 37.5604 24.238L41.2665 28.4623C41.4356 28.6552 41.5474 28.8916 41.5892 29.1447C41.631 29.3978 41.6012 29.6575 41.5031 29.8946C41.4049 30.1316 41.2425 30.3365 41.034 30.486C40.8256 30.6355 40.5795 30.7238 40.3235 30.7407L34.7183 31.1112C34.4959 31.126 34.2804 31.1947 34.0904 31.3113C33.9004 31.4278 33.7415 31.5888 33.6274 31.7803L30.7546 36.6124C30.6236 36.8329 30.4335 37.0124 30.2057 37.1305C29.9779 37.2485 29.7217 37.3004 29.4659 37.2803C29.2102 37.2602 28.9652 37.1689 28.7587 37.0166C28.5522 36.8644 28.3925 36.6574 28.2976 36.4191L26.211 31.2019C26.1287 30.9949 25.9972 30.811 25.8277 30.6664C25.6583 30.5217 25.4561 30.4205 25.2387 30.3717L19.7668 29.1286C19.5168 29.072 19.2876 28.9466 19.1051 28.7666C18.9226 28.5865 18.7942 28.359 18.7343 28.1097C18.6744 27.8605 18.6855 27.5994 18.7663 27.3561C18.847 27.1128 18.9943 26.897 19.1914 26.733L23.508 23.1368C23.6796 22.9946 23.8139 22.8126 23.8992 22.6067C23.9844 22.4008 24.018 22.1771 23.9971 21.9552L23.4831 16.3603C23.4597 16.1052 23.5081 15.8488 23.6228 15.6198C23.7374 15.3908 23.9139 15.1984 24.1321 15.0644C24.3503 14.9304 24.6017 14.86 24.8578 14.8613C25.1139 14.8626 25.3645 14.9355 25.5814 15.0717Z" fill="#FBF0F7"/>
<path d="M25.5814 15.0717L30.3343 18.0661C30.5228 18.1853 30.7374 18.2567 30.9597 18.274C31.1819 18.2914 31.4051 18.2542 31.6097 18.1657L36.7727 15.9474C37.0083 15.8459 37.2676 15.8124 37.5212 15.8508C37.7749 15.8891 38.0127 15.9978 38.2078 16.1643C38.4029 16.3309 38.5474 16.5488 38.625 16.7933C38.7026 17.0378 38.7102 17.2992 38.6469 17.5478L37.2676 22.9948C37.2126 23.2103 37.2105 23.4359 37.2615 23.6523C37.3124 23.8688 37.415 24.0697 37.5604 24.238L41.2665 28.4623C41.4356 28.6552 41.5474 28.8916 41.5892 29.1447C41.631 29.3978 41.6012 29.6575 41.5031 29.8946C41.4049 30.1316 41.2425 30.3365 41.034 30.486C40.8256 30.6355 40.5795 30.7238 40.3235 30.7407L34.7183 31.1112C34.4959 31.126 34.2804 31.1947 34.0904 31.3113C33.9004 31.4278 33.7415 31.5888 33.6274 31.7803L30.7546 36.6124C30.6236 36.8329 30.4335 37.0124 30.2057 37.1305C29.9779 37.2485 29.7217 37.3004 29.4659 37.2803C29.2102 37.2602 28.9652 37.1689 28.7587 37.0166C28.5522 36.8644 28.3925 36.6574 28.2976 36.4191L26.211 31.2019C26.1287 30.9949 25.9972 30.811 25.8277 30.6664C25.6583 30.5217 25.4561 30.4205 25.2387 30.3717L19.7668 29.1286C19.5168 29.072 19.2876 28.9466 19.1051 28.7666C18.9226 28.5865 18.7942 28.359 18.7343 28.1097C18.6744 27.8605 18.6855 27.5994 18.7663 27.3561C18.847 27.1128 18.9943 26.897 19.1914 26.733L23.508 23.1368C23.6796 22.9946 23.8139 22.8126 23.8992 22.6067C23.9844 22.4008 24.018 22.1771 23.9971 21.9552L23.4831 16.3603C23.4597 16.1052 23.5081 15.8488 23.6228 15.6198C23.7374 15.3908 23.9139 15.1984 24.1321 15.0644C24.3503 14.9304 24.6017 14.86 24.8578 14.8613C25.1139 14.8626 25.3645 14.9355 25.5814 15.0717V15.0717Z" stroke="#A537DC" stroke-width="2" stroke-linecap="round" stroke-linejoin="round"/>
<path d="M6.98702 42.4138L11.2919 42.6334C11.4627 42.6421 11.633 42.609 11.7881 42.537C11.9432 42.4651 12.0785 42.3564 12.1822 42.2205L14.8032 38.7985C14.9229 38.6423 15.0839 38.5226 15.268 38.4532C15.4521 38.3837 15.652 38.3671 15.8451 38.4054C16.0382 38.4436 16.2167 38.5351 16.3604 38.6696C16.5041 38.804 16.6074 38.976 16.6584 39.1661L17.78 43.3289C17.8248 43.4937 17.9088 43.6451 18.0248 43.7703C18.1408 43.8955 18.2854 43.9907 18.4463 44.0479L22.5125 45.4843C22.6979 45.5499 22.8613 45.666 22.9841 45.8196C23.107 45.9732 23.1845 46.158 23.2078 46.3533C23.2311 46.5486 23.1993 46.7465 23.116 46.9246C23.0327 47.1028 22.9013 47.2541 22.7365 47.3615L19.1242 49.7145C18.9812 49.8081 18.8629 49.9348 18.7796 50.084C18.6962 50.2332 18.6502 50.4003 18.6454 50.5711L18.537 54.8804C18.5321 55.0771 18.4722 55.2684 18.3641 55.4328C18.2561 55.5972 18.1042 55.728 17.9256 55.8106C17.7471 55.8932 17.549 55.9241 17.3538 55.9C17.1586 55.8759 16.974 55.7976 16.8209 55.6741L13.4707 52.9666C13.3378 52.8588 13.1806 52.7849 13.0127 52.7515C12.8449 52.718 12.6713 52.7261 12.5073 52.7748L8.37513 54.0033C8.18659 54.0597 7.98603 54.0621 7.7962 54.0102C7.60637 53.9584 7.43487 53.8544 7.30116 53.71C7.16745 53.5656 7.07688 53.3866 7.03973 53.1934C7.00258 53.0002 7.02034 52.8004 7.09098 52.6167L8.62845 48.59C8.69025 48.4304 8.71202 48.258 8.69185 48.088C8.67169 47.918 8.6102 47.7556 8.51277 47.6148L6.06893 44.064C5.95778 43.9022 5.89398 43.7127 5.88472 43.5166C5.87546 43.3206 5.92111 43.1258 6.01652 42.9543C6.11194 42.7828 6.25334 42.6414 6.4248 42.5459C6.59626 42.4504 6.79097 42.4046 6.98702 42.4138Z" fill="#FBF0F7"/>
<path d="M6.98702 42.4138L11.2919 42.6334C11.4627 42.6421 11.633 42.609 11.7881 42.537C11.9432 42.4651 12.0785 42.3564 12.1822 42.2205L14.8032 38.7985C14.9229 38.6423 15.0839 38.5226 15.268 38.4532C15.4521 38.3837 15.652 38.3671 15.8451 38.4054C16.0382 38.4436 16.2167 38.5351 16.3604 38.6696C16.5041 38.804 16.6074 38.976 16.6584 39.1661L17.78 43.3289C17.8248 43.4937 17.9088 43.6451 18.0248 43.7703C18.1408 43.8955 18.2854 43.9907 18.4463 44.0479L22.5125 45.4843C22.6979 45.5499 22.8613 45.666 22.9841 45.8196C23.107 45.9732 23.1844 46.158 23.2078 46.3533C23.2311 46.5486 23.1993 46.7465 23.116 46.9246C23.0327 47.1028 22.9013 47.2541 22.7365 47.3615L19.1242 49.7145C18.9812 49.8081 18.8629 49.9348 18.7796 50.084C18.6962 50.2332 18.6502 50.4003 18.6454 50.5711L18.537 54.8804C18.5321 55.0771 18.4722 55.2684 18.3641 55.4328C18.2561 55.5972 18.1042 55.728 17.9256 55.8106C17.7471 55.8932 17.549 55.9241 17.3538 55.9C17.1586 55.8759 16.974 55.7976 16.8209 55.6741L13.4707 52.9666C13.3378 52.8588 13.1806 52.7849 13.0127 52.7515C12.8449 52.718 12.6713 52.7261 12.5073 52.7748L8.37513 54.0033C8.18659 54.0597 7.98603 54.0621 7.7962 54.0102C7.60637 53.9584 7.43487 53.8544 7.30116 53.71C7.16745 53.5656 7.07688 53.3866 7.03973 53.1934C7.00258 53.0002 7.02034 52.8004 7.09098 52.6167L8.62845 48.59C8.69025 48.4304 8.71202 48.258 8.69185 48.088C8.67169 47.918 8.6102 47.7556 8.51277 47.6148L6.06893 44.064C5.95778 43.9022 5.89398 43.7127 5.88472 43.5166C5.87546 43.3206 5.92111 43.1258 6.01652 42.9543C6.11194 42.7828 6.25334 42.6414 6.4248 42.5459C6.59626 42.4504 6.79097 42.4046 6.98702 42.4138V42.4138Z" stroke="#A537DC" stroke-width="2" stroke-linecap="round" stroke-linejoin="round"/>
<path d="M94.5996 16.3603C94.6235 16.1048 94.5752 15.8478 94.4604 15.6183C94.3456 15.3888 94.1688 15.1961 93.9501 15.062C93.7314 14.9279 93.4795 14.8577 93.2229 14.8594C92.9663 14.8611 92.7153 14.9347 92.4984 15.0717L87.7455 18.0661C87.5571 18.1853 87.3424 18.2567 87.1201 18.274C86.8979 18.2914 86.6747 18.2542 86.4701 18.1657L81.3072 15.9474C81.0715 15.8465 80.8124 15.8135 80.559 15.8521C80.3057 15.8907 80.0681 15.9993 79.8732 16.1657C79.6783 16.3322 79.5338 16.5498 79.456 16.794C79.3782 17.0382 79.3702 17.2993 79.4329 17.5478L80.8122 22.9948C80.8676 23.2103 80.8699 23.4359 80.8189 23.6525C80.7679 23.869 80.6651 24.0699 80.5194 24.238L76.8148 28.4623C76.6458 28.6551 76.534 28.8914 76.4921 29.1444C76.4502 29.3973 76.4799 29.657 76.5779 29.894C76.6758 30.131 76.8381 30.3359 77.0463 30.4855C77.2545 30.6351 77.5005 30.7235 77.7563 30.7407L83.363 31.1112C83.5852 31.126 83.8005 31.1947 83.9903 31.3113C84.1801 31.4278 84.3387 31.5888 84.4524 31.7803L87.3252 36.6124C87.4562 36.8329 87.6464 37.0124 87.8741 37.1305C88.1019 37.2485 88.3581 37.3004 88.6139 37.2803C88.8696 37.2602 89.1146 37.1689 89.3211 37.0167C89.5276 36.8644 89.6874 36.6574 89.7823 36.4191L91.8688 31.202C91.9512 30.995 92.0828 30.8112 92.2522 30.6665C92.4216 30.5219 92.6237 30.4207 92.8411 30.3717L98.3218 29.1315C98.5719 29.0752 98.8013 28.9499 98.984 28.7699C99.1666 28.59 99.2952 28.3625 99.3553 28.1132C99.4153 27.8639 99.4044 27.6028 99.3237 27.3594C99.243 27.116 99.0958 26.9 98.8987 26.736L94.5806 23.1398C94.4092 22.9974 94.275 22.8154 94.1898 22.6095C94.1046 22.4036 94.0709 22.18 94.0916 21.9581L94.5996 16.3603Z" fill="#FBF0F7"/>
<path d="M94.5996 16.3603C94.6235 16.1048 94.5752 15.8478 94.4604 15.6183C94.3456 15.3888 94.1688 15.1961 93.9501 15.062C93.7314 14.9279 93.4794 14.8577 93.2229 14.8594C92.9663 14.8611 92.7153 14.9347 92.4984 15.0717L87.7455 18.0661C87.5571 18.1853 87.3424 18.2567 87.1201 18.274C86.8979 18.2914 86.6747 18.2542 86.4701 18.1657L81.3072 15.9474C81.0717 15.846 80.8125 15.8127 80.5591 15.851C80.3056 15.8893 80.0679 15.9977 79.8729 16.1641C79.6779 16.3305 79.5333 16.5481 79.4555 16.7924C79.3778 17.0367 79.37 17.2978 79.4329 17.5463L80.8122 22.9948C80.8676 23.2103 80.8699 23.4359 80.8189 23.6525C80.7679 23.869 80.6651 24.0699 80.5194 24.238L76.8148 28.4623C76.6458 28.6551 76.534 28.8914 76.4921 29.1444C76.4502 29.3973 76.4799 29.657 76.5779 29.894C76.6758 30.131 76.8381 30.3359 77.0463 30.4855C77.2545 30.6351 77.5005 30.7235 77.7563 30.7407L83.363 31.1112C83.5852 31.126 83.8005 31.1947 83.9903 31.3113C84.1801 31.4278 84.3387 31.5888 84.4524 31.7803L87.3252 36.6124C87.4562 36.8329 87.6464 37.0124 87.8741 37.1305C88.1019 37.2485 88.3581 37.3004 88.6139 37.2803C88.8696 37.2602 89.1146 37.1689 89.3211 37.0167C89.5276 36.8644 89.6874 36.6574 89.7823 36.4191L91.8688 31.202C91.9512 30.995 92.0828 30.8112 92.2522 30.6665C92.4216 30.5219 92.6237 30.4207 92.8411 30.3717L98.3218 29.1315C98.5719 29.0752 98.8013 28.9499 98.984 28.7699C99.1666 28.59 99.2952 28.3625 99.3553 28.1132C99.4153 27.8639 99.4044 27.6028 99.3237 27.3594C99.243 27.116 99.0958 26.9 98.8987 26.736L94.5806 23.1398C94.4092 22.9974 94.275 22.8154 94.1898 22.6095C94.1046 22.4036 94.0709 22.18 94.0916 21.9581L94.5996 16.3603Z" stroke="#A537DC" stroke-width="2" stroke-linecap="round" stroke-linejoin="round"/>
<path d="M112.015 44.064C112.127 43.9022 112.192 43.7122 112.201 43.5157C112.21 43.3191 112.165 43.1239 112.069 42.9521C111.973 42.7802 111.831 42.6387 111.658 42.5436C111.486 42.4484 111.291 42.4035 111.094 42.4138L106.789 42.6334C106.619 42.6424 106.448 42.6095 106.293 42.5376C106.138 42.4656 106.003 42.3567 105.899 42.2205L103.277 38.7985C103.157 38.6423 102.996 38.5226 102.812 38.4532C102.628 38.3837 102.428 38.3671 102.235 38.4054C102.042 38.4436 101.863 38.5351 101.719 38.6696C101.576 38.804 101.472 38.976 101.421 39.1661L100.301 43.3289C100.256 43.4937 100.172 43.6451 100.056 43.7703C99.9405 43.8955 99.7958 43.9907 99.635 44.0479L95.5702 45.4843C95.3844 45.5495 95.2206 45.6654 95.0974 45.819C94.9742 45.9725 94.8965 46.1576 94.8731 46.3531C94.8498 46.5486 94.8818 46.7467 94.9654 46.925C95.049 47.1032 95.1809 47.2545 95.3462 47.3615L98.9571 49.7145C99.1005 49.8076 99.2191 49.9343 99.3025 50.0835C99.386 50.2328 99.4317 50.4002 99.4359 50.5711L99.5457 54.8804C99.5507 55.0771 99.6106 55.2684 99.7186 55.4328C99.8267 55.5972 99.9785 55.728 100.157 55.8106C100.336 55.8932 100.534 55.9241 100.729 55.9C100.924 55.8759 101.109 55.7976 101.262 55.6741L104.616 52.9666C104.749 52.8589 104.906 52.7851 105.074 52.7517C105.241 52.7182 105.415 52.7262 105.578 52.7748L109.711 54.0033C109.899 54.0595 110.1 54.0617 110.289 54.0098C110.479 53.9579 110.651 53.8539 110.784 53.7097C110.918 53.5654 111.009 53.3866 111.046 53.1934C111.084 53.0003 111.066 52.8005 110.996 52.6167L109.457 48.59C109.396 48.4302 109.375 48.258 109.395 48.0881C109.415 47.9183 109.476 47.7558 109.573 47.6148L112.015 44.064Z" fill="#FBF0F7"/>
<path d="M112.015 44.064C112.127 43.9022 112.192 43.7122 112.201 43.5157C112.21 43.3192 112.165 43.1239 112.069 42.9521C111.973 42.7803 111.831 42.6388 111.658 42.5436C111.486 42.4485 111.291 42.4035 111.094 42.4138L106.789 42.6335C106.619 42.6425 106.448 42.6096 106.293 42.5376C106.138 42.4656 106.003 42.3568 105.899 42.2206L103.277 38.7986C103.157 38.6428 102.996 38.5235 102.812 38.4543C102.628 38.3851 102.428 38.3686 102.236 38.4068C102.043 38.4451 101.865 38.5364 101.721 38.6706C101.577 38.8047 101.474 38.9764 101.423 39.1661L100.301 43.329C100.256 43.4937 100.172 43.6451 100.056 43.7703C99.9405 43.8955 99.7958 43.9908 99.635 44.0479L95.5702 45.4844C95.3844 45.5495 95.2206 45.6654 95.0974 45.819C94.9742 45.9726 94.8965 46.1576 94.8731 46.3531C94.8498 46.5486 94.8818 46.7468 94.9654 46.925C95.049 47.1033 95.1809 47.2545 95.3462 47.3615L98.9571 49.7146C99.1005 49.8077 99.2191 49.9343 99.3025 50.0836C99.386 50.2329 99.4317 50.4002 99.4359 50.5712L99.5457 54.8805C99.5507 55.0771 99.6106 55.2685 99.7186 55.4328C99.8267 55.5972 99.9785 55.7281 100.157 55.8106C100.336 55.8932 100.534 55.9242 100.729 55.9C100.924 55.8759 101.109 55.7977 101.262 55.6741L104.616 52.9667C104.749 52.8589 104.906 52.7851 105.074 52.7517C105.241 52.7183 105.415 52.7262 105.578 52.7749L109.712 54.0034C109.9 54.0592 110.101 54.0611 110.29 54.0091C110.48 53.957 110.651 53.853 110.785 53.7088C110.918 53.5646 111.009 53.3859 111.046 53.1929C111.084 53 111.066 52.8004 110.996 52.6167L109.457 48.59C109.396 48.4303 109.375 48.2581 109.395 48.0882C109.415 47.9183 109.476 47.7559 109.573 47.6149L112.015 44.064Z" stroke="#A537DC" stroke-width="2" stroke-linecap="round" stroke-linejoin="round"/>
</svg>
